<svg xmlns="http://www.w3.org/2000/svg" xmlns:xlink="http://www.w3.org/1999/xlink" width="1000" height="1000" viewBox="0 0 1000 1000">
  <defs>
    <clipPath id="clip-Groovy_Round">
      <rect width="1000" height="1000"/>
    </clipPath>
  </defs>
  <g id="Groovy_Round" data-name="Groovy Round" clip-path="url(#clip-Groovy_Round)">
    <circle id="Ellipse_1" data-name="Ellipse 1" cx="500" cy="500" r="500" fill="#e05f5e"/>
    <g id="Group_1" data-name="Group 1" transform="translate(0 4)">
      <circle id="NUSIC_4-01" data-name="NUSIC 4-01" cx="324" cy="324" r="324" transform="translate(176 176)" fill="#171212"/>
      <path id="MUSIC_3-01" data-name="MUSIC 3-01" d="M350.234,279.034a65.45,65.45,0,0,1-62.5,65.334h-5.667a65.364,65.364,0,1,1,68.167-65.334Z" transform="translate(215.183 220.966)" fill="#e05f5e"/>
      <path id="MUSIC_2-01" data-name="MUSIC 2-01" d="M503.152,87.476c-40.933-3.236-182.178-8.413-182.987,69.894,0,2.1-.162,4.207-.162,6.31-.485,74.1.324,171.986.647,206.286a136.036,136.036,0,0,0-48.861-6.957c-71.836,2.751-129.758,61.643-131.376,133.479-1.618,74.91,56.951,136.553,130.728,139.627,1.941.162,3.883.162,5.825.162s4.045,0,5.986-.162a136.654,136.654,0,0,0,130.89-136.553c0-8.9-1.294-16.988-2.427-26.21v-.162c0-2.427-.162-4.692-.162-6.957.647-56.3-1.618-168.588-2.427-204.344-.162-6.31,4.692-10.678,11.164-11.164l82.191-4.53h0c9.384-1.133,12.943-7.442,12.943-13.591V99.125C515.124,92.977,509.461,87.961,503.152,87.476ZM279.878,562.984h-5.5A63.461,63.461,0,0,1,213.7,496.973C215,464.938,240.724,438.566,272.6,436.3a63.452,63.452,0,1,1,7.281,126.684Z" transform="translate(222.62 0.032)" fill="#fffffe"/>
    </g>
  </g>
</svg>
