<svg xmlns="http://www.w3.org/2000/svg" xmlns:xlink="http://www.w3.org/1999/xlink" width="1000" height="1000" viewBox="0 0 1000 1000">
  <defs>
    <clipPath id="clip-V6_Full_1">
      <rect width="1000" height="1000"/>
    </clipPath>
  </defs>
  <g id="V6_Full_1" data-name="V6 Full – 1" clip-path="url(#clip-V6_Full_1)">
    <g id="Ellipse_3" data-name="Ellipse 3" fill="#df3837" stroke="#707070" stroke-width="1">
      <circle cx="500" cy="500" r="500" stroke="none"/>
      <circle cx="500" cy="500" r="499.5" fill="none"/>
    </g>
    <g id="Group_5" data-name="Group 5" transform="translate(-6355 146)">
      <g id="Group_2" data-name="Group 2">
        <circle id="NUSIC_4-01" data-name="NUSIC 4-01" cx="324" cy="324" r="324" transform="translate(6531 30)"/>
        <circle id="NUSIC_4-01-2" data-name="NUSIC 4-01" cx="324" cy="324" r="324" transform="translate(6531 30)"/>
        <path id="music_cast_24dp_E3E3E3_FILL0_wght400_GRAD0_opsz40" d="M146.864-599.748q-18.71,39.891-22.581,87.2a28.43,28.43,0,0,1-6.987,16.671,19.6,19.6,0,0,1-15.381,6.987,19.059,19.059,0,0,1-15.587-7.31,22.827,22.827,0,0,1-5.058-16.994q4.3-56.555,26.129-103.975a286.6,286.6,0,0,1,57.962-83.549,285.723,285.723,0,0,1,83.762-57.962q47.633-21.826,103.762-26.129a22.388,22.388,0,0,1,16.994,5.271,19.241,19.241,0,0,1,7.31,15.374,19.868,19.868,0,0,1-6.774,15.381,27.423,27.423,0,0,1-16.452,6.987q-47.31,3.871-87.31,22.471a245.115,245.115,0,0,0-70.542,49.142A247.158,247.158,0,0,0,146.864-599.748Zm78.923,33.761a177.157,177.157,0,0,0-15.265,55.374,28.6,28.6,0,0,1-7.419,15.484,19.972,19.972,0,0,1-15.161,6.239,19.536,19.536,0,0,1-15.271-6.774,20.3,20.3,0,0,1-5.161-16.019q3.658-38.71,18.819-71.078a200.051,200.051,0,0,1,39.891-57.1,199.113,199.113,0,0,1,57.31-39.891q32.581-15.161,71.291-18.819a19.664,19.664,0,0,1,15.807,5.161,19.821,19.821,0,0,1,6.561,15.271,20.662,20.662,0,0,1-6.239,15.374,25.638,25.638,0,0,1-15.484,7.206,179.17,179.17,0,0,0-55.052,14.942,150.824,150.824,0,0,0-43.871,30.432A154.61,154.61,0,0,0,225.787-565.987Z" transform="translate(6497.492 865.89)" fill="#fff"/>
        <circle id="Ellipse_2" data-name="Ellipse 2" cx="99.5" cy="99.5" r="99.5" transform="translate(6756 255)" fill="#fff"/>
        <path id="MUSIC_3-01" data-name="MUSIC 3-01" d="M313.6,260.74a47.124,47.124,0,0,1-45,47.041h-4.08A47.062,47.062,0,1,1,313.6,260.74Z" transform="translate(6589 93.26)" fill="#ff0200"/>
      </g>
      <g id="Group_4" data-name="Group 4" transform="translate(-368.822 -838.806)">
        <path id="Intersection_1" data-name="Intersection 1" d="M609.394,311.085l-14.328-.489a10.1,10.1,0,0,1-9.878-10.343l5.728-160.164a320.981,320.981,0,0,1,32.753,58.332L619.986,301.44a10.135,10.135,0,0,1-10.229,9.652C609.636,311.091,609.515,311.089,609.394,311.085Z" transform="translate(6899 867)" fill="#fff"/>
        <rect id="Rectangle_1" data-name="Rectangle 1" width="315" height="34" rx="10" transform="translate(7282.974 1376.618) rotate(-47)" fill="#fff"/>
        <rect id="Rectangle_3" data-name="Rectangle 3" width="110" height="66" rx="10" transform="translate(7284.974 1353.473) rotate(-47)" fill="#fff"/>
      </g>
    </g>
  </g>
</svg>
